<svg width="1007" height="319" viewBox="0 0 1007 319" fill="none" xmlns="http://www.w3.org/2000/svg">
<rect x="866.729" y="84" width="138.468" height="60" rx="30" transform="rotate(37.746 866.729 84)" fill="#F56F00"/>
<rect x="958.152" y="73" width="52" height="243.25" rx="26" transform="rotate(20.7426 958.152 73)" fill="#238CA4"/>
<path d="M144 88.25H86V247H61.875V88.25H3.75V67.875H144V88.25ZM158.867 145.75C162.867 137.083 167.784 130.333 173.617 125.5C179.451 120.583 186.576 118.125 194.992 118.125C197.659 118.125 200.201 118.417 202.617 119C205.117 119.583 207.326 120.5 209.242 121.75L207.617 138.375C207.117 140.458 205.867 141.5 203.867 141.5C202.701 141.5 200.992 141.25 198.742 140.75C196.492 140.25 193.951 140 191.117 140C187.117 140 183.534 140.583 180.367 141.75C177.284 142.917 174.492 144.667 171.992 147C169.576 149.25 167.367 152.083 165.367 155.5C163.451 158.833 161.701 162.667 160.117 167V247H137.742V120.375H150.492C152.909 120.375 154.576 120.833 155.492 121.75C156.409 122.667 157.034 124.25 157.367 126.5L158.867 145.75ZM295.479 190C285.229 190.333 276.479 191.167 269.229 192.5C262.062 193.75 256.187 195.417 251.604 197.5C247.104 199.583 243.812 202.042 241.729 204.875C239.729 207.708 238.729 210.875 238.729 214.375C238.729 217.708 239.27 220.583 240.354 223C241.437 225.417 242.895 227.417 244.729 229C246.645 230.5 248.854 231.625 251.354 232.375C253.937 233.042 256.687 233.375 259.604 233.375C263.52 233.375 267.104 233 270.354 232.25C273.604 231.417 276.645 230.25 279.479 228.75C282.395 227.25 285.145 225.458 287.729 223.375C290.395 221.292 292.979 218.917 295.479 216.25V190ZM223.604 138.25C230.604 131.5 238.145 126.458 246.229 123.125C254.312 119.792 263.27 118.125 273.104 118.125C280.187 118.125 286.479 119.292 291.979 121.625C297.479 123.958 302.104 127.208 305.854 131.375C309.604 135.542 312.437 140.583 314.354 146.5C316.27 152.417 317.229 158.917 317.229 166V247H307.354C305.187 247 303.52 246.667 302.354 246C301.187 245.25 300.27 243.833 299.604 241.75L297.104 229.75C293.77 232.833 290.52 235.583 287.354 238C284.187 240.333 280.854 242.333 277.354 244C273.854 245.583 270.104 246.792 266.104 247.625C262.187 248.542 257.812 249 252.979 249C248.062 249 243.437 248.333 239.104 247C234.77 245.583 230.979 243.5 227.729 240.75C224.562 238 222.02 234.542 220.104 230.375C218.27 226.125 217.354 221.125 217.354 215.375C217.354 210.375 218.729 205.583 221.479 201C224.229 196.333 228.687 192.208 234.854 188.625C241.02 185.042 249.062 182.125 258.979 179.875C268.895 177.542 281.062 176.208 295.479 175.875V166C295.479 156.167 293.354 148.75 289.104 143.75C284.854 138.667 278.645 136.125 270.479 136.125C264.979 136.125 260.354 136.833 256.604 138.25C252.937 139.583 249.729 141.125 246.979 142.875C244.312 144.542 241.979 146.083 239.979 147.5C238.062 148.833 236.145 149.5 234.229 149.5C232.729 149.5 231.437 149.125 230.354 148.375C229.27 147.542 228.354 146.542 227.604 145.375L223.604 138.25ZM372.121 138.75C374.871 135.667 377.788 132.875 380.871 130.375C383.954 127.875 387.204 125.75 390.621 124C394.121 122.167 397.788 120.792 401.621 119.875C405.538 118.875 409.746 118.375 414.246 118.375C421.163 118.375 427.246 119.542 432.496 121.875C437.829 124.125 442.246 127.375 445.746 131.625C449.329 135.792 452.038 140.833 453.871 146.75C455.704 152.667 456.621 159.208 456.621 166.375V247H434.246V166.375C434.246 156.792 432.038 149.375 427.621 144.125C423.288 138.792 416.663 136.125 407.746 136.125C401.163 136.125 394.996 137.708 389.246 140.875C383.579 144.042 378.329 148.333 373.496 153.75V247H351.121V120.375H364.496C367.663 120.375 369.621 121.917 370.371 125L372.121 138.75ZM564.275 141.25C563.275 143.083 561.734 144 559.65 144C558.4 144 556.984 143.542 555.4 142.625C553.817 141.708 551.859 140.708 549.525 139.625C547.275 138.458 544.567 137.417 541.4 136.5C538.234 135.5 534.484 135 530.15 135C526.4 135 523.025 135.5 520.025 136.5C517.025 137.417 514.442 138.708 512.275 140.375C510.192 142.042 508.567 144 507.4 146.25C506.317 148.417 505.775 150.792 505.775 153.375C505.775 156.625 506.692 159.333 508.525 161.5C510.442 163.667 512.942 165.542 516.025 167.125C519.109 168.708 522.609 170.125 526.525 171.375C530.442 172.542 534.442 173.833 538.525 175.25C542.692 176.583 546.734 178.083 550.65 179.75C554.567 181.417 558.067 183.5 561.15 186C564.234 188.5 566.692 191.583 568.525 195.25C570.442 198.833 571.4 203.167 571.4 208.25C571.4 214.083 570.359 219.5 568.275 224.5C566.192 229.417 563.109 233.708 559.025 237.375C554.942 240.958 549.942 243.792 544.025 245.875C538.109 247.958 531.275 249 523.525 249C514.692 249 506.692 247.583 499.525 244.75C492.359 241.833 486.275 238.125 481.275 233.625L486.525 225.125C487.192 224.042 487.984 223.208 488.9 222.625C489.817 222.042 490.984 221.75 492.4 221.75C493.9 221.75 495.484 222.333 497.15 223.5C498.817 224.667 500.817 225.958 503.15 227.375C505.567 228.792 508.484 230.083 511.9 231.25C515.317 232.417 519.567 233 524.65 233C528.984 233 532.775 232.458 536.025 231.375C539.275 230.208 541.984 228.667 544.15 226.75C546.317 224.833 547.9 222.625 548.9 220.125C549.984 217.625 550.525 214.958 550.525 212.125C550.525 208.625 549.567 205.75 547.65 203.5C545.817 201.167 543.359 199.208 540.275 197.625C537.192 195.958 533.65 194.542 529.65 193.375C525.734 192.125 521.692 190.833 517.525 189.5C513.442 188.167 509.4 186.667 505.4 185C501.484 183.25 497.984 181.083 494.9 178.5C491.817 175.917 489.317 172.75 487.4 169C485.567 165.167 484.65 160.542 484.65 155.125C484.65 150.292 485.65 145.667 487.65 141.25C489.65 136.75 492.567 132.833 496.4 129.5C500.234 126.083 504.942 123.375 510.525 121.375C516.109 119.375 522.484 118.375 529.65 118.375C537.984 118.375 545.442 119.708 552.025 122.375C558.692 124.958 564.442 128.542 569.275 133.125L564.275 141.25ZM653.143 160.75C660.059 160.75 666.143 159.833 671.393 158C676.726 156.167 681.184 153.625 684.768 150.375C688.434 147.042 691.184 143.083 693.018 138.5C694.851 133.917 695.768 128.875 695.768 123.375C695.768 111.958 692.226 103.042 685.143 96.625C678.143 90.2083 667.476 87 653.143 87H624.393V160.75H653.143ZM653.143 67.875C664.476 67.875 674.309 69.2083 682.643 71.875C691.059 74.4583 698.018 78.1667 703.518 83C709.018 87.8333 713.101 93.6667 715.768 100.5C718.518 107.333 719.893 114.958 719.893 123.375C719.893 131.708 718.434 139.333 715.518 146.25C712.601 153.167 708.309 159.125 702.643 164.125C697.059 169.125 690.101 173.042 681.768 175.875C673.518 178.625 663.976 180 653.143 180H624.393V247H600.268V67.875H653.143ZM809.883 190C799.633 190.333 790.883 191.167 783.633 192.5C776.466 193.75 770.591 195.417 766.008 197.5C761.508 199.583 758.216 202.042 756.133 204.875C754.133 207.708 753.133 210.875 753.133 214.375C753.133 217.708 753.674 220.583 754.758 223C755.841 225.417 757.299 227.417 759.133 229C761.049 230.5 763.258 231.625 765.758 232.375C768.341 233.042 771.091 233.375 774.008 233.375C777.924 233.375 781.508 233 784.758 232.25C788.008 231.417 791.049 230.25 793.883 228.75C796.799 227.25 799.549 225.458 802.133 223.375C804.799 221.292 807.383 218.917 809.883 216.25V190ZM738.008 138.25C745.008 131.5 752.549 126.458 760.633 123.125C768.716 119.792 777.674 118.125 787.508 118.125C794.591 118.125 800.883 119.292 806.383 121.625C811.883 123.958 816.508 127.208 820.258 131.375C824.008 135.542 826.841 140.583 828.758 146.5C830.674 152.417 831.633 158.917 831.633 166V247H821.758C819.591 247 817.924 246.667 816.758 246C815.591 245.25 814.674 243.833 814.008 241.75L811.508 229.75C808.174 232.833 804.924 235.583 801.758 238C798.591 240.333 795.258 242.333 791.758 244C788.258 245.583 784.508 246.792 780.508 247.625C776.591 248.542 772.216 249 767.383 249C762.466 249 757.841 248.333 753.508 247C749.174 245.583 745.383 243.5 742.133 240.75C738.966 238 736.424 234.542 734.508 230.375C732.674 226.125 731.758 221.125 731.758 215.375C731.758 210.375 733.133 205.583 735.883 201C738.633 196.333 743.091 192.208 749.258 188.625C755.424 185.042 763.466 182.125 773.383 179.875C783.299 177.542 795.466 176.208 809.883 175.875V166C809.883 156.167 807.758 148.75 803.508 143.75C799.258 138.667 793.049 136.125 784.883 136.125C779.383 136.125 774.758 136.833 771.008 138.25C767.341 139.583 764.133 141.125 761.383 142.875C758.716 144.542 756.383 146.083 754.383 147.5C752.466 148.833 750.549 149.5 748.633 149.5C747.133 149.5 745.841 149.125 744.758 148.375C743.674 147.542 742.758 146.542 742.008 145.375L738.008 138.25Z" fill="#238CA4"/>
</svg>
